<svg xmlns="http://www.w3.org/2000/svg" xmlns:xlink="http://www.w3.org/1999/xlink" version="1.1" width="1024px" height="1024px" style="shape-rendering:geometricPrecision; text-rendering:geometricPrecision; image-rendering:optimizeQuality; fill-rule:evenodd; clip-rule:evenodd">

<g><path style="opacity:1" fill="#c1dee9" d="M 508.5,359.5 C 574.668,358.168 641.001,358.168 707.5,359.5C 707.376,360.107 707.043,360.44 706.5,360.5C 640.669,359.501 574.669,359.168 508.5,359.5 Z"/></g>
<g><path style="opacity:1" fill="#32a0de" d="M 508.5,359.5 C 574.669,359.168 640.669,359.501 706.5,360.5C 702.221,376.052 695.555,390.385 686.5,403.5C 686.357,401.738 686.691,400.071 687.5,398.5C 686.3,397.708 684.967,397.708 683.5,398.5C 690.376,388.41 695.376,377.41 698.5,365.5C 632.795,364.174 567.129,364.174 501.5,365.5C 501.611,364.883 501.944,364.383 502.5,364C 499.5,361.997 496.167,361.164 492.5,361.5C 497.598,360.043 502.931,359.376 508.5,359.5 Z"/></g>
<g><path style="opacity:1" fill="#3892d2" d="M 492.5,361.5 C 496.167,361.164 499.5,361.997 502.5,364C 501.944,364.383 501.611,364.883 501.5,365.5C 472.485,369.341 447.818,381.674 427.5,402.5C 426.873,400.343 427.54,398.343 429.5,396.5C 429.167,396.167 428.833,395.833 428.5,395.5C 427.378,396.63 426.044,397.297 424.5,397.5C 443.126,378.183 465.793,366.183 492.5,361.5 Z"/></g>
<g><path style="opacity:1" fill="#3178bc" d="M 427.5,402.5 C 417.351,413.652 409.684,426.319 404.5,440.5C 404.092,439.357 403.425,438.357 402.5,437.5C 401.676,439.421 400.343,440.754 398.5,441.5C 403.616,424.581 412.283,409.914 424.5,397.5C 426.044,397.297 427.378,396.63 428.5,395.5C 428.833,395.833 429.167,396.167 429.5,396.5C 427.54,398.343 426.873,400.343 427.5,402.5 Z"/></g>
<g><path style="opacity:1" fill="#3984c3" d="M 686.5,403.5 C 673.221,419.981 655.888,429.481 634.5,432C 593.168,432.5 551.835,432.667 510.5,432.5C 509.488,431.128 508.488,429.795 507.5,428.5C 508.609,427.71 509.942,427.21 511.5,427C 554.528,426.962 597.528,426.295 640.5,425C 658.075,421.222 672.409,412.389 683.5,398.5C 684.967,397.708 686.3,397.708 687.5,398.5C 686.691,400.071 686.357,401.738 686.5,403.5 Z"/></g>
<g><path style="opacity:1" fill="#2f6ab2" d="M 404.5,440.5 C 400.072,456.446 395.072,472.113 389.5,487.5C 388.766,486.292 388.433,484.959 388.5,483.5C 387.5,483.5 386.5,483.5 385.5,483.5C 389.435,469.364 393.768,455.364 398.5,441.5C 400.343,440.754 401.676,439.421 402.5,437.5C 403.425,438.357 404.092,439.357 404.5,440.5 Z"/></g>








<g><path style="opacity:1" fill="#2664af" d="M 507.5,428.5 C 508.488,429.795 509.488,431.128 510.5,432.5C 489.547,439.796 477.214,454.463 473.5,476.5C 472.596,477.209 472.263,478.209 472.5,479.5C 520.512,478.838 568.178,479.505 615.5,481.5C 613.112,489.164 610.612,496.831 608,504.5C 605.646,509.887 602.812,514.887 599.5,519.5C 601.386,516.509 600.72,514.509 597.5,513.5C 601.655,504.847 604.988,495.847 607.5,486.5C 608.043,486.44 608.376,486.107 608.5,485.5C 560.668,484.833 513.002,484.167 465.5,483.5C 467.294,472.284 470.794,461.618 476,451.5C 483.283,439.289 493.783,431.622 507.5,428.5 Z"/></g>





<g><path style="opacity:1" fill="#2d57a1" d="M 385.5,483.5 C 386.5,483.5 387.5,483.5 388.5,483.5C 388.433,484.959 388.766,486.292 389.5,487.5C 382.733,511.127 375.4,534.46 367.5,557.5C 366.432,556.566 365.099,556.232 363.5,556.5C 363.715,558.179 363.048,559.179 361.5,559.5C 368.9,533.968 376.9,508.635 385.5,483.5 Z"/></g>

<g><path style="opacity:1" fill="#2b57a6" d="M 597.5,513.5 C 600.72,514.509 601.386,516.509 599.5,519.5C 594.068,529.432 586.402,537.266 576.5,543C 567.211,548.596 557.211,552.096 546.5,553.5C 544.695,551.803 542.361,550.97 539.5,551C 543.226,549.957 542.893,549.457 538.5,549.5C 563.998,546.924 583.664,534.924 597.5,513.5 Z"/></g>
<g><path style="opacity:1" fill="#2b4191" d="M 367.5,557.5 C 363.204,572.716 358.537,587.716 353.5,602.5C 353.631,601.624 353.298,600.957 352.5,600.5C 350.64,601.26 348.973,602.26 347.5,603.5C 351.97,588.756 356.637,574.089 361.5,559.5C 363.048,559.179 363.715,558.179 363.5,556.5C 365.099,556.232 366.432,556.566 367.5,557.5 Z"/></g>
<g><path style="opacity:1" fill="#264395" d="M 538.5,549.5 C 542.893,549.457 543.226,549.957 539.5,551C 542.361,550.97 544.695,551.803 546.5,553.5C 513.196,554.313 479.863,554.813 446.5,555C 441.808,568.744 437.308,582.577 433,596.5C 431.726,599.391 430.226,602.058 428.5,604.5C 427.731,601.143 426.064,600.81 423.5,603.5C 430.123,585.798 436.457,567.965 442.5,550C 474.498,549.5 506.498,549.333 538.5,549.5 Z"/></g>


<g><path style="opacity:1" fill="#283993" d="M 353.5,602.5 C 348.707,618.881 343.707,635.214 338.5,651.5C 339,651.833 339.5,652.167 340,652.5C 359.072,645.587 377.905,638.087 396.5,630C 407.359,622.973 416.359,614.14 423.5,603.5C 426.064,600.81 427.731,601.143 428.5,604.5C 422.125,617.711 412.458,627.877 399.5,635C 376.911,644.963 353.911,653.797 330.5,661.5C 335.357,641.93 341.023,622.596 347.5,603.5C 348.973,602.26 350.64,601.26 352.5,600.5C 353.298,600.957 353.631,601.624 353.5,602.5 Z"/></g>
</svg>